<?xml version="1.0" encoding="utf-8"?>
<!-- Generator: Adobe Illustrator 17.1.0, SVG Export Plug-In . SVG Version: 6.00 Build 0)  -->
<!DOCTYPE svg PUBLIC "-//W3C//DTD SVG 1.1//EN" "http://www.w3.org/Graphics/SVG/1.1/DTD/svg11.dtd">
<svg version="1.1" id="Layer_1" xmlns="http://www.w3.org/2000/svg" xmlns:xlink="http://www.w3.org/1999/xlink" x="0px" y="0px"
	 viewBox="0 0 1200 800" enable-background="new 0 0 1200 800" xml:space="preserve">
<g id="Layer_2">
	<rect fill="#333333" width="1200" height="800"/>
</g>
<g id="Layer_1_1_">
	<circle opacity="0.2" fill="#5D5D5D" enable-background="new    " cx="1102.4" cy="639.7" r="33.7"/>
	<circle opacity="0.4" fill="#5D5D5D" enable-background="new    " cx="1165.1" cy="597.6" r="50.3"/>
	<g opacity="0.5">
		<path fill="#F8F8F8" d="M1117.8,646.1c-2.1,2.1-4.4,3.6-7,4.7c-2.6,1.1-5.4,1.7-8.2,1.7c-2.9-0.1-5.6-0.5-8.2-1.7
			c-2.7-1.1-5-2.8-6.9-4.7l0,0c5.9,5.9,11,7.7,15.2,7.8C1106.4,654,1111.8,652,1117.8,646.1L1117.8,646.1z"/>
		<path fill="#F8F8F8" d="M1104.9,623.7c0-0.6-0.2-1.2-0.7-1.6c-0.5-0.5-1-0.7-1.6-0.7s-1.2,0.2-1.6,0.7s-0.7,1-0.7,1.6"/>
		<g>
			<path fill="#F8F8F8" d="M1100.6,622.6l-9.9,18.6c-0.4,0.7-0.3,1.6,0.1,2.3l-1.3,2.4c-0.2,0.4-0.1,1,0.2,1.3l-5.2,9.7
				c-0.1,0.1,0,0.2,0.1,0.3s0.2,0,0.3-0.1l5.1-9.7c0.5,0.2,1,0,1.3-0.5l1.3-2.4c0.8,0,1.6-0.4,1.9-1.2l9.9-18.6 M1091.4,641.6l5-9.4
				l0.5,0.3l-4.8,9c-0.1,0.1,0,0.4,0.1,0.4c0.1,0.1,0.4,0,0.4-0.1l4.8-9l1.3,0.7l-5,9.4c-0.4,0.7-1.2,0.9-1.9,0.6
				C1091.3,643.1,1091,642.3,1091.4,641.6z"/>
		</g>
		<g>
			<path fill="#F8F8F8" d="M1100.6,624.6l9.8,18.7c0.4,0.7,1.2,1.2,1.9,1.2l1.3,2.4c0.2,0.4,0.7,0.6,1.2,0.5l5.1,9.7
				c0.1,0.1,0.2,0.1,0.3,0.1c0.1-0.1,0.1-0.2,0.1-0.3l-5.1-9.7c0.4-0.3,0.6-0.9,0.3-1.3l-1.3-2.4c0.4-0.7,0.5-1.5,0.1-2.3l-9.8-18.7
				 M1111.1,642.9l-5-9.4l0.5-0.3l4.8,9.1c0.1,0.1,0.3,0.2,0.4,0.1c0.1-0.1,0.2-0.3,0.1-0.4l-4.8-9.1l1.3-0.7l5,9.4
				c0.4,0.7,0.1,1.5-0.6,1.9C1112.3,643.8,1111.5,643.5,1111.1,642.9z"/>
		</g>
		<path fill="#EB5B4C" d="M1106,662.2l-3.4-6.6l-3.4,6.6c-0.7,2.3,1.5,4.1,3.4,4.1S1106.8,664.5,1106,662.2z M1102.5,665.6
			L1102.5,665.6c-0.1,0-0.2,0-0.3,0h-0.1h-0.1c-0.1,0-0.2,0-0.3-0.1c-0.1,0-0.1,0-0.2-0.1c-0.1,0-0.1-0.1-0.2-0.1
			c-0.1-0.1-0.2-0.1-0.4-0.2c-0.1-0.1-0.2-0.2-0.3-0.3c-0.1-0.1-0.2-0.2-0.3-0.3c-0.1-0.1-0.2-0.2-0.2-0.4c-0.1-0.1-0.1-0.2-0.2-0.4
			c0-0.1-0.1-0.2-0.1-0.4c0-0.1,0-0.1,0-0.2c0-0.1,0-0.1,0-0.1c0-0.1,0-0.2,0-0.3s0-0.1,0-0.2c0-0.1,0-0.2,0-0.2s0,0.1,0,0.2
			c0,0.1,0,0.1,0,0.2c0,0.1,0,0.2,0.1,0.2c0,0,0,0.1,0.1,0.1s0,0.1,0.1,0.1c0,0.1,0.1,0.2,0.2,0.3s0.1,0.2,0.2,0.2
			c0.1,0.1,0.2,0.1,0.3,0.2c0.1,0.1,0.2,0.1,0.3,0.2c0.1,0.1,0.2,0.1,0.3,0.1c0.1,0,0.2,0.1,0.3,0.1h0.1h0.1c0.1,0,0.1,0,0.2,0h0.1
			h0.1c0.1,0,0.2,0,0.2,0c0.3,0,0.6,0.2,0.6,0.5C1103,665.3,1102.8,665.5,1102.5,665.6z"/>
	</g>
</g>
</svg>
